<svg xmlns="http://www.w3.org/2000/svg" viewBox="0 0 1200 750" width="100%" height="100%">
  <defs>
    <linearGradient id="bgGrad-project-ap" x1="0%" y1="0%" x2="100%" y2="100%">
      <stop offset="0%" stop-color="#141418"/>
      <stop offset="100%" stop-color="#0A0A0D"/>
    </linearGradient>
    <filter id="glow-project-ap" x="-20%" y="-20%" width="140%" height="140%">
      <feGaussianBlur stdDeviation="60" result="blur" />
    </filter>
  </defs>

  <!-- Background -->
  <rect width="1200" height="750" fill="url(#bgGrad-project-ap)"/>

  <!-- Ambient Light Orbs -->
  <circle cx="280" cy="220" r="300" fill="#34D399" opacity="0.09" filter="url(#glow-project-ap)"/>
  <circle cx="950" cy="520" r="280" fill="#34D399" opacity="0.06" filter="url(#glow-project-ap)"/>

  <!-- Browser Window Frame -->
  <rect x="40" y="35" width="1120" height="680" rx="16" fill="#141416" stroke="rgba(255,255,255,0.08)" stroke-width="1.5"/>
  
  <!-- Browser Header Bar -->
  <rect x="40" y="35" width="1120" height="52" rx="16" fill="#1A1A1E"/>
  <rect x="40" y="72" width="1120" height="15" fill="#1A1A1E"/>
  <line x1="40" y1="87" x2="1160" y2="87" stroke="rgba(255,255,255,0.06)" stroke-width="1"/>

  <!-- Window Dots -->
  <circle cx="75" cy="61" r="6" fill="#ED6A5E"/>
  <circle cx="95" cy="61" r="6" fill="#F5BF4F"/>
  <circle cx="115" cy="61" r="6" fill="#61C554"/>

  <!-- URL Address Bar -->
  <rect x="360" y="47" width="480" height="28" rx="7" fill="#0F0F11" stroke="rgba(255,255,255,0.06)"/>
  <text x="600" y="66" fill="#88888E" font-family="'Plus Jakarta Sans', system-ui, sans-serif" font-size="12" text-anchor="middle" letter-spacing="0.5">https://apex-academy.io</text>

  <!-- Website Interior -->
  <!-- Website Header -->
  <text x="80" y="132" fill="#F5F5F2" font-family="'Plus Jakarta Sans', system-ui, sans-serif" font-size="17" font-weight="800" letter-spacing="1.5">APEX DIGITAL ACADEMY</text>
  <rect x="80" y="144" width="40" height="2" fill="#34D399"/>

  <text x="860" y="132" fill="#A1A1A1" font-family="'Plus Jakarta Sans', system-ui, sans-serif" font-size="13" font-weight="500">Solutions</text>
  <text x="950" y="132" fill="#A1A1A1" font-family="'Plus Jakarta Sans', system-ui, sans-serif" font-size="13" font-weight="500">Case Studies</text>
  <rect x="1045" y="114" width="75" height="28" rx="6" fill="#34D399" opacity="0.15" stroke="#34D399" stroke-width="1"/>
  <text x="1082" y="133" fill="#34D399" font-family="'Plus Jakarta Sans', system-ui, sans-serif" font-size="12" font-weight="700" text-anchor="middle">LIVE DEMO</text>

  <!-- Tech Badge -->
  <rect x="80" y="180" width="370" height="28" rx="14" fill="rgba(52,211,153,0.18)" stroke="#34D399" stroke-width="1" stroke-opacity="0.3"/>
  <circle cx="96" cy="194" r="4" fill="#34D399"/>
  <text x="110" y="199" fill="#34D399" font-family="'Plus Jakarta Sans', system-ui, sans-serif" font-size="11" font-weight="700" letter-spacing="1">KAJABI + WORDPRESS LMS + FUNNEL OPTIMIZATION</text>

  <!-- Hero Typography -->
  <text x="80" y="255" fill="#F5F5F2" font-family="'Plus Jakarta Sans', system-ui, sans-serif" font-size="32" font-weight="800" letter-spacing="-0.5">Master High-Ticket Web Engineering &amp; Strategy</text>
  <text x="80" y="295" fill="#A0A0A5" font-family="'Plus Jakarta Sans', system-ui, sans-serif" font-size="15" font-weight="400">A premier cohort-based learning platform featuring seamless video delivery and checkout funnels.</text>

  <!-- CTA Buttons -->
  <rect x="80" y="330" width="170" height="42" rx="8" fill="#34D399"/>
  <text x="165" y="356" fill="#0B0B0B" font-family="'Plus Jakarta Sans', system-ui, sans-serif" font-size="13" font-weight="700" text-anchor="middle" letter-spacing="0.5">EXPLORE WORK →</text>

  <rect x="265" y="330" width="150" height="42" rx="8" fill="transparent" stroke="rgba(255,255,255,0.15)" stroke-width="1.5"/>
  <text x="340" y="356" fill="#FFFFFF" font-family="'Plus Jakarta Sans', system-ui, sans-serif" font-size="13" font-weight="600" text-anchor="middle">VIEW ARCHITECTURE</text>

  <!-- Metrics Bar -->
  <rect x="80" y="405" width="1040" height="80" rx="12" fill="#18181C" stroke="rgba(255,255,255,0.06)" stroke-width="1"/>
  
  <text x="130" y="444" fill="#34D399" font-family="'Plus Jakarta Sans', system-ui, sans-serif" font-size="24" font-weight="800">8.4%</text>
  <text x="130" y="468" fill="#8E8E93" font-family="'Plus Jakarta Sans', system-ui, sans-serif" font-size="12" font-weight="500">Funnel Conversion Rate</text>

  <line x1="420" y1="425" x2="420" y2="465" stroke="rgba(255,255,255,0.1)" stroke-width="1"/>

  <text x="480" y="444" fill="#FFFFFF" font-family="'Plus Jakarta Sans', system-ui, sans-serif" font-size="24" font-weight="800">12.8k+</text>
  <text x="480" y="468" fill="#8E8E93" font-family="'Plus Jakarta Sans', system-ui, sans-serif" font-size="12" font-weight="500">Active Students</text>

  <line x1="780" y1="425" x2="780" y2="465" stroke="rgba(255,255,255,0.1)" stroke-width="1"/>

  <text x="840" y="444" fill="#FFFFFF" font-family="'Plus Jakarta Sans', system-ui, sans-serif" font-size="24" font-weight="800">Zero Latency</text>
  <text x="840" y="468" fill="#8E8E93" font-family="'Plus Jakarta Sans', system-ui, sans-serif" font-size="12" font-weight="500">Video Delivery CDN</text>

  <!-- Showcase Cards -->
  <g transform="translate(80, 510)">
    <rect width="330" height="160" rx="10" fill="#1B1B20" stroke="rgba(255,255,255,0.06)"/>
    <rect x="16" y="16" width="298" height="80" rx="6" fill="#222228"/>
    <rect x="28" y="32" width="70" height="12" rx="3" fill="#34D399" opacity="0.6"/>
    <rect x="28" y="52" width="180" height="8" rx="3" fill="#FFFFFF" opacity="0.2"/>
    <rect x="28" y="68" width="120" height="8" rx="3" fill="#FFFFFF" opacity="0.12"/>
    <text x="16" y="125" fill="#FFFFFF" font-family="'Plus Jakarta Sans', system-ui, sans-serif" font-size="14" font-weight="700">Module 1: Advanced Theme Architecture</text>
    <text x="16" y="145" fill="#8E8E93" font-family="'Plus Jakarta Sans', system-ui, sans-serif" font-size="11">Custom Components · Live Reactive UI</text>
  </g>

  <g transform="translate(435, 510)">
    <rect width="330" height="160" rx="10" fill="#1B1B20" stroke="rgba(255,255,255,0.06)"/>
    <rect x="16" y="16" width="298" height="80" rx="6" fill="#222228"/>
    <rect x="28" y="32" width="85" height="12" rx="3" fill="#34D399" opacity="0.6"/>
    <rect x="28" y="52" width="190" height="8" rx="3" fill="#FFFFFF" opacity="0.2"/>
    <rect x="28" y="68" width="140" height="8" rx="3" fill="#FFFFFF" opacity="0.12"/>
    <text x="16" y="125" fill="#FFFFFF" font-family="'Plus Jakarta Sans', system-ui, sans-serif" font-size="14" font-weight="700">Module 2: High-Ticket Client Funnels</text>
    <text x="16" y="145" fill="#8E8E93" font-family="'Plus Jakarta Sans', system-ui, sans-serif" font-size="11">High-Speed Queries · Core Web Vitals A+</text>
  </g>

  <g transform="translate(790, 510)">
    <rect width="330" height="160" rx="10" fill="#1B1B20" stroke="rgba(255,255,255,0.06)"/>
    <rect x="16" y="16" width="298" height="80" rx="6" fill="#222228"/>
    <rect x="28" y="32" width="65" height="12" rx="3" fill="#34D399" opacity="0.6"/>
    <rect x="28" y="52" width="170" height="8" rx="3" fill="#FFFFFF" opacity="0.2"/>
    <rect x="28" y="68" width="110" height="8" rx="3" fill="#FFFFFF" opacity="0.12"/>
    <text x="16" y="125" fill="#FFFFFF" font-family="'Plus Jakarta Sans', system-ui, sans-serif" font-size="14" font-weight="700">Module 3: Speed &amp; Core Web Vitals</text>
    <text x="16" y="145" fill="#8E8E93" font-family="'Plus Jakarta Sans', system-ui, sans-serif" font-size="11">Conversion Architecture · Global CDN</text>
  </g>
</svg>